# MagicaVoxel @ Ephtracy

# group
o 

# material
mtllib flower.mtl
usemtl palette

# normals
vn -1 0 0
vn 1 0 0
vn 0 0 1
vn 0 0 -1
vn 0 -1 0
vn 0 1 0

# texcoords
vt 0.0136719 0.5
vt 0.0214844 0.5
vt 0.0488281 0.5
vt 0.0527344 0.5

# verts
v -0.5 0.2 0.5
v -0.5 0.2 -0.5
v -0.5 0.3 0.5
v -0.5 0.3 -0.5
v -0.5 0.7 0.5
v -0.5 0.7 -0.5
v -0.5 0.8 0.5
v -0.5 0.8 -0.5
v -0.4 0.1 0.5
v -0.4 0.1 -0.5
v -0.4 0.2 0.5
v -0.4 0.2 -0.5
v -0.4 0.3 0.5
v -0.4 0.3 -0.5
v -0.4 0.4 0.5
v -0.4 0.4 -0.5
v -0.4 0.6 0.5
v -0.4 0.6 -0.5
v -0.4 0.7 0.5
v -0.4 0.7 -0.5
v -0.4 0.8 0.5
v -0.4 0.8 -0.5
v -0.4 0.9 0.5
v -0.4 0.9 -0.5
v -0.3 0 0.5
v -0.3 0 -0.5
v -0.3 0.1 0.5
v -0.3 0.1 -0.5
v -0.3 0.4 0.5
v -0.3 0.4 -0.5
v -0.3 0.6 0.5
v -0.3 0.6 -0.5
v -0.3 0.9 0.5
v -0.3 0.9 -0.5
v -0.3 1 0.5
v -0.3 1 -0.5
v 0.1 0.1 0.5
v 0.1 0.1 -0.5
v 0.1 0.2 0.5
v 0.1 0.2 -0.5
v 0.1 0.8 0.5
v 0.1 0.8 -0.5
v 0.1 0.9 0.5
v 0.1 0.9 -0.5
v 0.2 0 0.5
v 0.2 0 -0.5
v 0.2 0.1 0.5
v 0.2 0.1 -0.5
v 0.2 0.9 0.5
v 0.2 0.9 -0.5
v 0.2 1 0.5
v 0.2 1 -0.5
v -0.2 0 0.5
v -0.2 0 -0.5
v -0.2 0.1 0.5
v -0.2 0.1 -0.5
v -0.2 0.9 0.5
v -0.2 0.9 -0.5
v -0.2 1 0.5
v -0.2 1 -0.5
v -0.1 0.1 0.5
v -0.1 0.1 -0.5
v -0.1 0.2 0.5
v -0.1 0.2 -0.5
v -0.1 0.8 0.5
v -0.1 0.8 -0.5
v -0.1 0.9 0.5
v -0.1 0.9 -0.5
v 0.3 0 0.5
v 0.3 0 -0.5
v 0.3 0.1 0.5
v 0.3 0.1 -0.5
v 0.3 0.4 0.5
v 0.3 0.4 -0.5
v 0.3 0.6 0.5
v 0.3 0.6 -0.5
v 0.3 0.9 0.5
v 0.3 0.9 -0.5
v 0.3 1 0.5
v 0.3 1 -0.5
v 0.4 0.1 0.5
v 0.4 0.1 -0.5
v 0.4 0.2 0.5
v 0.4 0.2 -0.5
v 0.4 0.3 0.5
v 0.4 0.3 -0.5
v 0.4 0.4 0.5
v 0.4 0.4 -0.5
v 0.4 0.6 0.5
v 0.4 0.6 -0.5
v 0.4 0.7 0.5
v 0.4 0.7 -0.5
v 0.4 0.8 0.5
v 0.4 0.8 -0.5
v 0.4 0.9 0.5
v 0.4 0.9 -0.5
v 0.5 0.2 0.5
v 0.5 0.2 -0.5
v 0.5 0.3 0.5
v 0.5 0.3 -0.5
v 0.5 0.7 0.5
v 0.5 0.7 -0.5
v 0.5 0.8 0.5
v 0.5 0.8 -0.5
v -0.5 0.2 0.5
v -0.5 0.3 0.5
v -0.5 0.7 0.5
v -0.5 0.8 0.5
v -0.4 0.1 0.5
v -0.4 0.2 0.5
v -0.4 0.3 0.5
v -0.4 0.4 0.5
v -0.4 0.6 0.5
v -0.4 0.7 0.5
v -0.4 0.8 0.5
v -0.4 0.9 0.5
v -0.3 0 0.5
v -0.3 0.1 0.5
v -0.3 0.2 0.5
v -0.3 0.3 0.5
v -0.3 0.4 0.5
v -0.3 0.6 0.5
v -0.3 0.7 0.5
v -0.3 0.8 0.5
v -0.3 0.9 0.5
v -0.3 1 0.5
v -0.2 0 0.5
v -0.2 0.1 0.5
v -0.2 0.2 0.5
v -0.2 0.3 0.5
v -0.2 0.4 0.5
v -0.2 0.6 0.5
v -0.2 0.7 0.5
v -0.2 0.8 0.5
v -0.2 0.9 0.5
v -0.2 1 0.5
v -0.1 0.1 0.5
v -0.1 0.2 0.5
v -0.1 0.3 0.5
v -0.1 0.4 0.5
v -0.1 0.6 0.5
v -0.1 0.7 0.5
v -0.1 0.8 0.5
v -0.1 0.9 0.5
v 0 0.5 0.5
v 0 0.6 0.5
v 0.1 0.1 0.5
v 0.1 0.2 0.5
v 0.1 0.3 0.5
v 0.1 0.4 0.5
v 0.1 0.5 0.5
v 0.1 0.6 0.5
v 0.1 0.7 0.5
v 0.1 0.8 0.5
v 0.1 0.9 0.5
v 0.2 0 0.5
v 0.2 0.1 0.5
v 0.2 0.2 0.5
v 0.2 0.3 0.5
v 0.2 0.4 0.5
v 0.2 0.6 0.5
v 0.2 0.7 0.5
v 0.2 0.8 0.5
v 0.2 0.9 0.5
v 0.2 1 0.5
v 0.3 0 0.5
v 0.3 0.1 0.5
v 0.3 0.2 0.5
v 0.3 0.3 0.5
v 0.3 0.4 0.5
v 0.3 0.6 0.5
v 0.3 0.7 0.5
v 0.3 0.8 0.5
v 0.3 0.9 0.5
v 0.3 1 0.5
v 0.4 0.1 0.5
v 0.4 0.2 0.5
v 0.4 0.3 0.5
v 0.4 0.4 0.5
v 0.4 0.6 0.5
v 0.4 0.7 0.5
v 0.4 0.8 0.5
v 0.4 0.9 0.5
v 0.5 0.2 0.5
v 0.5 0.3 0.5
v 0.5 0.7 0.5
v 0.5 0.8 0.5
v -0.5 0.2 -0.5
v -0.5 0.3 -0.5
v -0.5 0.7 -0.5
v -0.5 0.8 -0.5
v -0.4 0.1 -0.5
v -0.4 0.2 -0.5
v -0.4 0.3 -0.5
v -0.4 0.4 -0.5
v -0.4 0.6 -0.5
v -0.4 0.7 -0.5
v -0.4 0.8 -0.5
v -0.4 0.9 -0.5
v -0.3 0 -0.5
v -0.3 0.1 -0.5
v -0.3 0.4 -0.5
v -0.3 0.6 -0.5
v -0.3 0.9 -0.5
v -0.3 1 -0.5
v -0.2 0 -0.5
v -0.2 0.1 -0.5
v -0.2 0.9 -0.5
v -0.2 1 -0.5
v -0.1 0.1 -0.5
v -0.1 0.2 -0.5
v -0.1 0.8 -0.5
v -0.1 0.9 -0.5
v 0.1 0.1 -0.5
v 0.1 0.2 -0.5
v 0.1 0.8 -0.5
v 0.1 0.9 -0.5
v 0.2 0 -0.5
v 0.2 0.1 -0.5
v 0.2 0.9 -0.5
v 0.2 1 -0.5
v 0.3 0 -0.5
v 0.3 0.1 -0.5
v 0.3 0.4 -0.5
v 0.3 0.6 -0.5
v 0.3 0.9 -0.5
v 0.3 1 -0.5
v 0.4 0.1 -0.5
v 0.4 0.2 -0.5
v 0.4 0.3 -0.5
v 0.4 0.4 -0.5
v 0.4 0.6 -0.5
v 0.4 0.7 -0.5
v 0.4 0.8 -0.5
v 0.4 0.9 -0.5
v 0.5 0.2 -0.5
v 0.5 0.3 -0.5
v 0.5 0.7 -0.5
v 0.5 0.8 -0.5
v -0.3 0 0.5
v -0.2 0 0.5
v 0.2 0 0.5
v 0.3 0 0.5
v -0.3 0 -0.5
v -0.2 0 -0.5
v 0.2 0 -0.5
v 0.3 0 -0.5
v -0.4 0.1 0.5
v -0.3 0.1 0.5
v -0.2 0.1 0.5
v -0.1 0.1 0.5
v 0.1 0.1 0.5
v 0.2 0.1 0.5
v 0.3 0.1 0.5
v 0.4 0.1 0.5
v -0.4 0.1 -0.5
v -0.3 0.1 -0.5
v -0.2 0.1 -0.5
v -0.1 0.1 -0.5
v 0.1 0.1 -0.5
v 0.2 0.1 -0.5
v 0.3 0.1 -0.5
v 0.4 0.1 -0.5
v -0.5 0.2 0.5
v -0.4 0.2 0.5
v -0.1 0.2 0.5
v 0.1 0.2 0.5
v 0.4 0.2 0.5
v 0.5 0.2 0.5
v -0.5 0.2 -0.5
v -0.4 0.2 -0.5
v -0.1 0.2 -0.5
v 0.1 0.2 -0.5
v 0.4 0.2 -0.5
v 0.5 0.2 -0.5
v -0.4 0.6 0.5
v -0.3 0.6 0.5
v 0.3 0.6 0.5
v 0.4 0.6 0.5
v -0.4 0.6 -0.5
v -0.3 0.6 -0.5
v 0.3 0.6 -0.5
v 0.4 0.6 -0.5
v -0.5 0.7 0.5
v -0.4 0.7 0.5
v 0.4 0.7 0.5
v 0.5 0.7 0.5
v -0.5 0.7 -0.5
v -0.4 0.7 -0.5
v 0.4 0.7 -0.5
v 0.5 0.7 -0.5
v -0.5 0.3 0.5
v -0.4 0.3 0.5
v 0.4 0.3 0.5
v 0.5 0.3 0.5
v -0.5 0.3 -0.5
v -0.4 0.3 -0.5
v 0.4 0.3 -0.5
v 0.5 0.3 -0.5
v -0.4 0.4 0.5
v -0.3 0.4 0.5
v 0.3 0.4 0.5
v 0.4 0.4 0.5
v -0.4 0.4 -0.5
v -0.3 0.4 -0.5
v 0.3 0.4 -0.5
v 0.4 0.4 -0.5
v -0.5 0.8 0.5
v -0.4 0.8 0.5
v -0.1 0.8 0.5
v 0.1 0.8 0.5
v 0.4 0.8 0.5
v 0.5 0.8 0.5
v -0.5 0.8 -0.5
v -0.4 0.8 -0.5
v -0.1 0.8 -0.5
v 0.1 0.8 -0.5
v 0.4 0.8 -0.5
v 0.5 0.8 -0.5
v -0.4 0.9 0.5
v -0.3 0.9 0.5
v -0.2 0.9 0.5
v -0.1 0.9 0.5
v 0.1 0.9 0.5
v 0.2 0.9 0.5
v 0.3 0.9 0.5
v 0.4 0.9 0.5
v -0.4 0.9 -0.5
v -0.3 0.9 -0.5
v -0.2 0.9 -0.5
v -0.1 0.9 -0.5
v 0.1 0.9 -0.5
v 0.2 0.9 -0.5
v 0.3 0.9 -0.5
v 0.4 0.9 -0.5
v -0.3 1 0.5
v -0.2 1 0.5
v 0.2 1 0.5
v 0.3 1 0.5
v -0.3 1 -0.5
v -0.2 1 -0.5
v 0.2 1 -0.5
v 0.3 1 -0.5

# faces
f 3/3/1 2/3/1 1/3/1
f 4/3/1 2/3/1 3/3/1
f 7/3/1 6/3/1 5/3/1
f 8/3/1 6/3/1 7/3/1
f 11/3/1 10/3/1 9/3/1
f 12/3/1 10/3/1 11/3/1
f 15/3/1 14/3/1 13/3/1
f 16/3/1 14/3/1 15/3/1
f 19/3/1 18/3/1 17/3/1
f 20/3/1 18/3/1 19/3/1
f 23/3/1 22/3/1 21/3/1
f 24/3/1 22/3/1 23/3/1
f 27/3/1 26/3/1 25/3/1
f 28/3/1 26/3/1 27/3/1
f 31/3/1 30/3/1 29/3/1
f 32/3/1 30/3/1 31/3/1
f 35/3/1 34/3/1 33/3/1
f 36/3/1 34/3/1 35/3/1
f 39/3/1 38/3/1 37/3/1
f 40/3/1 38/3/1 39/3/1
f 43/3/1 42/3/1 41/3/1
f 44/3/1 42/3/1 43/3/1
f 47/3/1 46/3/1 45/3/1
f 48/3/1 46/3/1 47/3/1
f 51/3/1 50/3/1 49/3/1
f 52/3/1 50/3/1 51/3/1
f 53/3/2 54/3/2 55/3/2
f 55/3/2 54/3/2 56/3/2
f 57/3/2 58/3/2 59/3/2
f 59/3/2 58/3/2 60/3/2
f 61/3/2 62/3/2 63/3/2
f 63/3/2 62/3/2 64/3/2
f 65/3/2 66/3/2 67/3/2
f 67/3/2 66/3/2 68/3/2
f 69/3/2 70/3/2 71/3/2
f 71/3/2 70/3/2 72/3/2
f 73/3/2 74/3/2 75/3/2
f 75/3/2 74/3/2 76/3/2
f 77/3/2 78/3/2 79/3/2
f 79/3/2 78/3/2 80/3/2
f 81/3/2 82/3/2 83/3/2
f 83/3/2 82/3/2 84/3/2
f 85/3/2 86/3/2 87/3/2
f 87/3/2 86/3/2 88/3/2
f 89/3/2 90/3/2 91/3/2
f 91/3/2 90/3/2 92/3/2
f 93/3/2 94/3/2 95/3/2
f 95/3/2 94/3/2 96/3/2
f 97/3/2 98/3/2 99/3/2
f 99/3/2 98/3/2 100/3/2
f 101/3/2 102/3/2 103/3/2
f 103/3/2 102/3/2 104/3/2
f 110/3/3 106/3/3 105/3/3
f 111/3/3 106/3/3 110/3/3
f 114/3/3 108/3/3 107/3/3
f 115/3/3 108/3/3 114/3/3
f 118/3/3 112/3/3 111/3/3
f 118/3/3 110/3/3 109/3/3
f 118/3/3 111/3/3 110/3/3
f 119/3/3 112/3/3 118/3/3
f 120/3/3 112/3/3 119/3/3
f 121/3/3 112/3/3 120/3/3
f 122/3/3 116/3/3 115/3/3
f 122/3/3 115/3/3 114/3/3
f 122/3/3 114/3/3 113/3/3
f 123/3/3 116/3/3 122/3/3
f 124/3/3 116/3/3 123/3/3
f 125/3/3 116/3/3 124/3/3
f 127/3/3 119/3/3 118/3/3
f 127/3/3 118/3/3 117/3/3
f 128/3/3 119/3/3 127/3/3
f 129/4/3 120/4/3 119/4/3
f 129/3/3 119/3/3 128/3/3
f 130/3/3 121/3/3 120/3/3
f 130/4/3 120/4/3 129/4/3
f 130/3/3 122/3/3 121/3/3
f 130/3/3 123/3/3 122/3/3
f 131/3/3 123/3/3 130/3/3
f 132/3/3 123/3/3 131/3/3
f 133/4/3 124/4/3 123/4/3
f 133/3/3 123/3/3 132/3/3
f 134/3/3 126/3/3 125/3/3
f 134/4/3 124/4/3 133/4/3
f 134/3/3 125/3/3 124/3/3
f 135/3/3 126/3/3 134/3/3
f 136/3/3 126/3/3 135/3/3
f 137/3/3 129/3/3 128/3/3
f 137/3/3 130/3/3 129/3/3
f 138/3/3 130/3/3 137/3/3
f 139/4/3 131/4/3 130/4/3
f 139/3/3 130/3/3 138/3/3
f 140/3/3 132/3/3 131/3/3
f 140/4/3 131/4/3 139/4/3
f 141/4/3 133/4/3 132/4/3
f 141/3/3 132/3/3 140/3/3
f 142/3/3 135/3/3 134/3/3
f 142/4/3 133/4/3 141/4/3
f 142/3/3 134/3/3 133/3/3
f 143/3/3 135/3/3 142/3/3
f 144/3/3 135/3/3 143/3/3
f 145/1/3 141/1/3 140/1/3
f 146/3/3 143/3/3 142/3/3
f 146/1/3 141/1/3 145/1/3
f 146/3/3 142/3/3 141/3/3
f 148/3/3 140/3/3 139/3/3
f 148/3/3 139/3/3 138/3/3
f 149/3/3 140/3/3 148/3/3
f 150/1/3 145/1/3 140/1/3
f 150/3/3 140/3/3 149/3/3
f 151/2/3 146/2/3 145/2/3
f 151/1/3 145/1/3 150/1/3
f 152/3/3 143/3/3 146/3/3
f 152/2/3 146/2/3 151/2/3
f 153/3/3 143/3/3 152/3/3
f 154/3/3 143/3/3 153/3/3
f 157/3/3 149/3/3 148/3/3
f 157/3/3 148/3/3 147/3/3
f 158/3/3 149/3/3 157/3/3
f 159/4/3 150/4/3 149/4/3
f 159/3/3 149/3/3 158/3/3
f 160/3/3 151/3/3 150/3/3
f 160/4/3 150/4/3 159/4/3
f 160/3/3 152/3/3 151/3/3
f 161/4/3 153/4/3 152/4/3
f 161/3/3 152/3/3 160/3/3
f 162/3/3 155/3/3 154/3/3
f 162/4/3 153/4/3 161/4/3
f 162/3/3 154/3/3 153/3/3
f 163/3/3 155/3/3 162/3/3
f 164/3/3 155/3/3 163/3/3
f 166/3/3 158/3/3 157/3/3
f 166/3/3 157/3/3 156/3/3
f 167/3/3 158/3/3 166/3/3
f 168/4/3 159/4/3 158/4/3
f 168/3/3 158/3/3 167/3/3
f 169/3/3 161/3/3 160/3/3
f 169/4/3 159/4/3 168/4/3
f 169/3/3 160/3/3 159/3/3
f 169/3/3 162/3/3 161/3/3
f 170/3/3 162/3/3 169/3/3
f 171/3/3 162/3/3 170/3/3
f 172/4/3 163/4/3 162/4/3
f 172/3/3 162/3/3 171/3/3
f 173/3/3 164/3/3 163/3/3
f 173/4/3 163/4/3 172/4/3
f 173/3/3 165/3/3 164/3/3
f 174/3/3 165/3/3 173/3/3
f 175/3/3 165/3/3 174/3/3
f 176/3/3 168/3/3 167/3/3
f 176/3/3 170/3/3 169/3/3
f 176/3/3 169/3/3 168/3/3
f 177/3/3 170/3/3 176/3/3
f 178/3/3 170/3/3 177/3/3
f 179/3/3 170/3/3 178/3/3
f 180/3/3 172/3/3 171/3/3
f 180/3/3 174/3/3 173/3/3
f 180/3/3 173/3/3 172/3/3
f 181/3/3 174/3/3 180/3/3
f 182/3/3 174/3/3 181/3/3
f 183/3/3 174/3/3 182/3/3
f 184/3/3 178/3/3 177/3/3
f 185/3/3 178/3/3 184/3/3
f 186/3/3 182/3/3 181/3/3
f 187/3/3 182/3/3 186/3/3
f 188/3/4 189/3/4 193/3/4
f 193/3/4 189/3/4 194/3/4
f 190/3/4 191/3/4 197/3/4
f 197/3/4 191/3/4 198/3/4
f 194/3/4 195/3/4 201/3/4
f 192/3/4 193/3/4 201/3/4
f 193/3/4 194/3/4 201/3/4
f 201/3/4 195/3/4 202/3/4
f 198/3/4 199/3/4 203/3/4
f 197/3/4 198/3/4 203/3/4
f 196/3/4 197/3/4 203/3/4
f 203/3/4 199/3/4 204/3/4
f 201/3/4 202/3/4 206/3/4
f 204/3/4 205/3/4 206/3/4
f 203/3/4 204/3/4 206/3/4
f 202/3/4 203/3/4 206/3/4
f 200/3/4 201/3/4 206/3/4
f 206/3/4 205/3/4 207/3/4
f 207/3/4 205/3/4 208/3/4
f 208/3/4 205/3/4 209/3/4
f 207/3/4 208/3/4 210/3/4
f 210/3/4 208/3/4 211/3/4
f 211/3/4 208/3/4 212/3/4
f 212/3/4 208/3/4 213/3/4
f 211/3/4 212/3/4 215/3/4
f 215/3/4 212/3/4 216/3/4
f 214/3/4 215/3/4 219/3/4
f 216/3/4 217/3/4 219/3/4
f 215/3/4 216/3/4 219/3/4
f 219/3/4 217/3/4 220/3/4
f 219/3/4 220/3/4 222/3/4
f 220/3/4 221/3/4 222/3/4
f 218/3/4 219/3/4 222/3/4
f 222/3/4 221/3/4 223/3/4
f 223/3/4 221/3/4 224/3/4
f 224/3/4 221/3/4 225/3/4
f 225/3/4 221/3/4 226/3/4
f 226/3/4 221/3/4 227/3/4
f 223/3/4 224/3/4 228/3/4
f 228/3/4 224/3/4 229/3/4
f 229/3/4 224/3/4 230/3/4
f 230/3/4 224/3/4 231/3/4
f 225/3/4 226/3/4 232/3/4
f 232/3/4 226/3/4 233/3/4
f 233/3/4 226/3/4 234/3/4
f 234/3/4 226/3/4 235/3/4
f 229/3/4 230/3/4 236/3/4
f 236/3/4 230/3/4 237/3/4
f 233/3/4 234/3/4 238/3/4
f 238/3/4 234/3/4 239/3/4
f 244/3/5 241/3/5 240/3/5
f 245/3/5 241/3/5 244/3/5
f 246/3/5 243/3/5 242/3/5
f 247/3/5 243/3/5 246/3/5
f 256/3/5 249/3/5 248/3/5
f 257/3/5 249/3/5 256/3/5
f 258/3/5 251/3/5 250/3/5
f 259/3/5 251/3/5 258/3/5
f 260/3/5 253/3/5 252/3/5
f 261/3/5 253/3/5 260/3/5
f 262/3/5 255/3/5 254/3/5
f 263/3/5 255/3/5 262/3/5
f 270/3/5 265/3/5 264/3/5
f 271/3/5 265/3/5 270/3/5
f 272/3/5 267/3/5 266/3/5
f 273/3/5 267/3/5 272/3/5
f 274/3/5 269/3/5 268/3/5
f 275/3/5 269/3/5 274/3/5
f 280/3/5 277/3/5 276/3/5
f 281/3/5 277/3/5 280/3/5
f 282/3/5 279/3/5 278/3/5
f 283/3/5 279/3/5 282/3/5
f 288/3/5 285/3/5 284/3/5
f 289/3/5 285/3/5 288/3/5
f 290/3/5 287/3/5 286/3/5
f 291/3/5 287/3/5 290/3/5
f 292/3/6 293/3/6 296/3/6
f 296/3/6 293/3/6 297/3/6
f 294/3/6 295/3/6 298/3/6
f 298/3/6 295/3/6 299/3/6
f 300/3/6 301/3/6 304/3/6
f 304/3/6 301/3/6 305/3/6
f 302/3/6 303/3/6 306/3/6
f 306/3/6 303/3/6 307/3/6
f 308/3/6 309/3/6 314/3/6
f 314/3/6 309/3/6 315/3/6
f 310/3/6 311/3/6 316/3/6
f 316/3/6 311/3/6 317/3/6
f 312/3/6 313/3/6 318/3/6
f 318/3/6 313/3/6 319/3/6
f 320/3/6 321/3/6 328/3/6
f 328/3/6 321/3/6 329/3/6
f 322/3/6 323/3/6 330/3/6
f 330/3/6 323/3/6 331/3/6
f 324/3/6 325/3/6 332/3/6
f 332/3/6 325/3/6 333/3/6
f 326/3/6 327/3/6 334/3/6
f 334/3/6 327/3/6 335/3/6
f 336/3/6 337/3/6 340/3/6
f 340/3/6 337/3/6 341/3/6
f 338/3/6 339/3/6 342/3/6
f 342/3/6 339/3/6 343/3/6
