# MagicaVoxel @ Ephtracy

# group
o 

# material
mtllib CubePlayer.mtl
usemtl palette

# normals
vn -1 0 0
vn 1 0 0
vn 0 0 1
vn 0 0 -1
vn 0 -1 0
vn 0 1 0

# texcoords
vt 0.0214844 0.5
vt 0.283203 0.5
vt 0.876953 0.5

# verts
v -0.5 0.2 0.1
v -0.5 0.2 -0.3
v -0.5 0.4 0.1
v -0.5 0.4 -0.3
v -0.4 0.1 0.3
v -0.4 0.1 -0.5
v -0.4 0.2 0.1
v -0.4 0.2 -0.3
v -0.4 0.4 0.1
v -0.4 0.4 -0.3
v -0.4 0.5 0.3
v -0.4 0.5 -0.5
v -0.3 0 0.3
v -0.3 0 -0.5
v -0.3 0.1 0.3
v -0.3 0.1 -0.5
v -0.3 0.5 0.3
v -0.3 0.5 -0.5
v -0.3 0.6 0.3
v -0.3 0.6 -0.5
v -0.2 0.6 0.2
v -0.2 0.6 0
v -0.2 0.6 -0.2
v -0.2 0.6 -0.4
v -0.2 0.9 0.2
v -0.2 0.9 0
v -0.2 0.9 -0.2
v -0.2 0.9 -0.4
v 0.2 0.6 0.2
v 0.2 0.6 0
v 0.2 0.6 -0.2
v 0.2 0.6 -0.4
v 0.2 0.9 0.2
v 0.2 0.9 0
v 0.2 0.9 -0.2
v 0.2 0.9 -0.4
v 0.3 0 0.3
v 0.3 0 -0.5
v 0.3 0.1 0.3
v 0.3 0.1 -0.5
v 0.4 0.1 0.3
v 0.4 0.1 -0.5
v 0.4 0.2 0.3
v 0.4 0.2 -0.5
v 0.4 0.5 0.3
v 0.4 0.5 -0.5
v 0.4 0.6 0.3
v 0.4 0.6 -0.5
v 0.5 0.2 0.3
v 0.5 0.2 -0.5
v 0.5 0.5 0.3
v 0.5 0.5 -0.5
v -0.4 0.1 0.3
v -0.4 0.5 0.3
v -0.3 0 0.3
v -0.3 0.1 0.3
v -0.3 0.5 0.3
v -0.3 0.6 0.3
v -0.2 0 0.3
v -0.2 0.6 0.3
v -0.1 0 0.3
v -0.1 0.6 0.3
v 0 0 0.3
v 0 0.6 0.3
v 0.1 0 0.3
v 0.1 0.6 0.3
v 0.2 0 0.3
v 0.2 0.6 0.3
v 0.3 0 0.3
v 0.3 0.1 0.3
v 0.3 0.4 0.3
v 0.3 0.5 0.3
v 0.4 0.1 0.3
v 0.4 0.2 0.3
v 0.4 0.4 0.3
v 0.4 0.5 0.3
v 0.4 0.6 0.3
v 0.5 0.2 0.3
v 0.5 0.5 0.3
v -0.2 0.6 0.2
v -0.2 0.9 0.2
v -0.1 0.6 0.2
v 0 0.6 0.2
v 0.1 0.6 0.2
v 0.2 0.6 0.2
v 0.2 0.9 0.2
v -0.5 0.2 0.1
v -0.5 0.4 0.1
v -0.4 0.2 0.1
v -0.4 0.4 0.1
v -0.2 0.6 -0.2
v -0.2 0.9 -0.2
v -0.1 0.6 -0.2
v 0 0.6 -0.2
v 0.1 0.6 -0.2
v 0.2 0.6 -0.2
v 0.2 0.9 -0.2
v -0.2 0.6 0
v -0.2 0.9 0
v -0.1 0.6 0
v 0 0.6 0
v 0.1 0.6 0
v 0.2 0.6 0
v 0.2 0.9 0
v -0.5 0.2 -0.3
v -0.5 0.4 -0.3
v -0.4 0.2 -0.3
v -0.4 0.4 -0.3
v -0.2 0.6 -0.4
v -0.2 0.9 -0.4
v -0.1 0.6 -0.4
v 0 0.6 -0.4
v 0.1 0.6 -0.4
v 0.2 0.6 -0.4
v 0.2 0.9 -0.4
v -0.4 0.1 -0.5
v -0.4 0.5 -0.5
v -0.3 0 -0.5
v -0.3 0.1 -0.5
v -0.3 0.5 -0.5
v -0.3 0.6 -0.5
v -0.2 0 -0.5
v -0.2 0.6 -0.5
v -0.1 0 -0.5
v -0.1 0.6 -0.5
v 0 0 -0.5
v 0 0.6 -0.5
v 0.1 0 -0.5
v 0.1 0.6 -0.5
v 0.2 0 -0.5
v 0.2 0.6 -0.5
v 0.3 0 -0.5
v 0.3 0.1 -0.5
v 0.3 0.4 -0.5
v 0.3 0.5 -0.5
v 0.4 0.1 -0.5
v 0.4 0.2 -0.5
v 0.4 0.4 -0.5
v 0.4 0.5 -0.5
v 0.4 0.6 -0.5
v 0.5 0.2 -0.5
v 0.5 0.5 -0.5
v -0.3 0 0.3
v -0.2 0 0.3
v -0.1 0 0.3
v 0 0 0.3
v 0.1 0 0.3
v 0.2 0 0.3
v 0.3 0 0.3
v -0.3 0 -0.5
v -0.2 0 -0.5
v -0.1 0 -0.5
v 0 0 -0.5
v 0.1 0 -0.5
v 0.2 0 -0.5
v 0.3 0 -0.5
v -0.4 0.1 0.3
v -0.3 0.1 0.3
v 0.3 0.1 0.3
v 0.4 0.1 0.3
v -0.4 0.1 -0.5
v -0.3 0.1 -0.5
v 0.3 0.1 -0.5
v 0.4 0.1 -0.5
v 0.4 0.2 0.3
v 0.5 0.2 0.3
v -0.5 0.2 0.1
v -0.4 0.2 0.1
v -0.5 0.2 -0.3
v -0.4 0.2 -0.3
v 0.4 0.2 -0.5
v 0.5 0.2 -0.5
v -0.5 0.4 0.1
v -0.4 0.4 0.1
v -0.5 0.4 -0.3
v -0.4 0.4 -0.3
v -0.4 0.5 0.3
v -0.3 0.5 0.3
v 0.4 0.5 0.3
v 0.5 0.5 0.3
v -0.4 0.5 -0.5
v -0.3 0.5 -0.5
v 0.4 0.5 -0.5
v 0.5 0.5 -0.5
v -0.3 0.6 0.3
v -0.2 0.6 0.3
v -0.1 0.6 0.3
v 0 0.6 0.3
v 0.1 0.6 0.3
v 0.2 0.6 0.3
v 0.4 0.6 0.3
v -0.2 0.6 0.2
v -0.1 0.6 0.2
v 0 0.6 0.2
v 0.1 0.6 0.2
v 0.2 0.6 0.2
v -0.2 0.6 0
v -0.1 0.6 0
v 0 0.6 0
v 0.1 0.6 0
v 0.2 0.6 0
v -0.2 0.6 -0.2
v -0.1 0.6 -0.2
v 0 0.6 -0.2
v 0.1 0.6 -0.2
v 0.2 0.6 -0.2
v -0.2 0.6 -0.4
v -0.1 0.6 -0.4
v 0 0.6 -0.4
v 0.1 0.6 -0.4
v 0.2 0.6 -0.4
v -0.3 0.6 -0.5
v -0.2 0.6 -0.5
v -0.1 0.6 -0.5
v 0 0.6 -0.5
v 0.1 0.6 -0.5
v 0.2 0.6 -0.5
v 0.4 0.6 -0.5
v -0.2 0.9 0.2
v 0.2 0.9 0.2
v -0.2 0.9 0
v 0.2 0.9 0
v -0.2 0.9 -0.2
v 0.2 0.9 -0.2
v -0.2 0.9 -0.4
v 0.2 0.9 -0.4

# faces
f 3/3/1 2/3/1 1/3/1
f 4/3/1 2/3/1 3/3/1
f 7/1/1 6/1/1 5/1/1
f 8/1/1 6/1/1 7/1/1
f 9/1/1 7/1/1 5/1/1
f 10/1/1 6/1/1 8/1/1
f 11/1/1 9/1/1 5/1/1
f 11/1/1 10/1/1 9/1/1
f 12/1/1 6/1/1 10/1/1
f 12/1/1 10/1/1 11/1/1
f 15/3/1 14/3/1 13/3/1
f 16/3/1 14/3/1 15/3/1
f 19/3/1 18/3/1 17/3/1
f 20/3/1 18/3/1 19/3/1
f 25/2/1 22/2/1 21/2/1
f 26/2/1 22/2/1 25/2/1
f 27/2/1 24/2/1 23/2/1
f 28/2/1 24/2/1 27/2/1
f 29/2/2 30/2/2 33/2/2
f 33/2/2 30/2/2 34/2/2
f 31/2/2 32/2/2 35/2/2
f 35/2/2 32/2/2 36/2/2
f 37/1/2 38/1/2 39/1/2
f 39/1/2 38/1/2 40/1/2
f 41/1/2 42/1/2 43/1/2
f 43/1/2 42/1/2 44/1/2
f 45/1/2 46/1/2 47/1/2
f 47/1/2 46/1/2 48/1/2
f 49/1/2 50/1/2 51/1/2
f 51/1/2 50/1/2 52/1/2
f 56/1/3 54/1/3 53/1/3
f 57/1/3 54/1/3 56/1/3
f 59/3/3 56/3/3 55/3/3
f 59/3/3 58/3/3 57/3/3
f 59/3/3 57/3/3 56/3/3
f 60/3/3 58/3/3 59/3/3
f 61/1/3 60/1/3 59/1/3
f 62/1/3 60/1/3 61/1/3
f 63/3/3 62/3/3 61/3/3
f 64/3/3 62/3/3 63/3/3
f 65/1/3 64/1/3 63/1/3
f 66/1/3 64/1/3 65/1/3
f 67/3/3 66/3/3 65/3/3
f 68/3/3 66/3/3 67/3/3
f 69/1/3 68/1/3 67/1/3
f 70/1/3 68/1/3 69/1/3
f 71/1/3 68/1/3 70/1/3
f 72/1/3 68/1/3 71/1/3
f 73/1/3 71/1/3 70/1/3
f 74/1/3 71/1/3 73/1/3
f 75/3/3 72/3/3 71/3/3
f 75/1/3 71/1/3 74/1/3
f 76/1/3 68/1/3 72/1/3
f 76/3/3 72/3/3 75/3/3
f 77/1/3 68/1/3 76/1/3
f 78/1/3 75/1/3 74/1/3
f 78/1/3 76/1/3 75/1/3
f 79/1/3 76/1/3 78/1/3
f 82/2/3 81/2/3 80/2/3
f 83/2/3 81/2/3 82/2/3
f 84/2/3 81/2/3 83/2/3
f 85/2/3 81/2/3 84/2/3
f 86/2/3 81/2/3 85/2/3
f 89/3/3 88/3/3 87/3/3
f 90/3/3 88/3/3 89/3/3
f 93/2/3 92/2/3 91/2/3
f 94/2/3 92/2/3 93/2/3
f 95/2/3 92/2/3 94/2/3
f 96/2/3 92/2/3 95/2/3
f 97/2/3 92/2/3 96/2/3
f 98/2/4 99/2/4 100/2/4
f 100/2/4 99/2/4 101/2/4
f 101/2/4 99/2/4 102/2/4
f 102/2/4 99/2/4 103/2/4
f 103/2/4 99/2/4 104/2/4
f 105/3/4 106/3/4 107/3/4
f 107/3/4 106/3/4 108/3/4
f 109/2/4 110/2/4 111/2/4
f 111/2/4 110/2/4 112/2/4
f 112/2/4 110/2/4 113/2/4
f 113/2/4 110/2/4 114/2/4
f 114/2/4 110/2/4 115/2/4
f 116/1/4 117/1/4 119/1/4
f 119/1/4 117/1/4 120/1/4
f 118/3/4 119/3/4 122/3/4
f 120/3/4 121/3/4 122/3/4
f 119/3/4 120/3/4 122/3/4
f 122/3/4 121/3/4 123/3/4
f 122/1/4 123/1/4 124/1/4
f 124/1/4 123/1/4 125/1/4
f 124/3/4 125/3/4 126/3/4
f 126/3/4 125/3/4 127/3/4
f 126/1/4 127/1/4 128/1/4
f 128/1/4 127/1/4 129/1/4
f 128/3/4 129/3/4 130/3/4
f 130/3/4 129/3/4 131/3/4
f 130/1/4 131/1/4 132/1/4
f 132/1/4 131/1/4 133/1/4
f 133/1/4 131/1/4 134/1/4
f 134/1/4 131/1/4 135/1/4
f 133/1/4 134/1/4 136/1/4
f 136/1/4 134/1/4 137/1/4
f 134/3/4 135/3/4 138/3/4
f 137/1/4 134/1/4 138/1/4
f 135/1/4 131/1/4 139/1/4
f 138/3/4 135/3/4 139/3/4
f 139/1/4 131/1/4 140/1/4
f 137/1/4 138/1/4 141/1/4
f 138/1/4 139/1/4 141/1/4
f 141/1/4 139/1/4 142/1/4
f 150/3/5 144/3/5 143/3/5
f 151/1/5 145/1/5 144/1/5
f 151/3/5 144/3/5 150/3/5
f 152/3/5 146/3/5 145/3/5
f 152/1/5 145/1/5 151/1/5
f 153/1/5 147/1/5 146/1/5
f 153/3/5 146/3/5 152/3/5
f 154/3/5 148/3/5 147/3/5
f 154/1/5 147/1/5 153/1/5
f 155/1/5 149/1/5 148/1/5
f 155/3/5 148/3/5 154/3/5
f 156/1/5 149/1/5 155/1/5
f 161/1/5 158/1/5 157/1/5
f 162/1/5 158/1/5 161/1/5
f 163/1/5 160/1/5 159/1/5
f 164/1/5 160/1/5 163/1/5
f 169/3/5 168/3/5 167/3/5
f 170/3/5 168/3/5 169/3/5
f 171/1/5 166/1/5 165/1/5
f 172/1/5 166/1/5 171/1/5
f 173/3/6 174/3/6 175/3/6
f 175/3/6 174/3/6 176/3/6
f 177/1/6 178/1/6 181/1/6
f 181/1/6 178/1/6 182/1/6
f 179/1/6 180/1/6 183/1/6
f 183/1/6 180/1/6 184/1/6
f 185/3/6 186/3/6 192/3/6
f 186/1/6 187/1/6 192/1/6
f 187/3/6 188/3/6 193/3/6
f 192/1/6 187/1/6 193/1/6
f 188/1/6 189/1/6 194/1/6
f 193/3/6 188/3/6 194/3/6
f 189/3/6 190/3/6 195/3/6
f 194/1/6 189/1/6 195/1/6
f 190/1/6 191/1/6 196/1/6
f 195/3/6 190/3/6 196/3/6
f 185/3/6 192/3/6 197/3/6
f 196/1/6 191/1/6 201/1/6
f 185/3/6 197/3/6 202/3/6
f 197/1/6 198/1/6 202/1/6
f 198/3/6 199/3/6 203/3/6
f 202/1/6 198/1/6 203/1/6
f 199/1/6 200/1/6 204/1/6
f 203/3/6 199/3/6 204/3/6
f 200/3/6 201/3/6 205/3/6
f 204/1/6 200/1/6 205/1/6
f 201/1/6 191/1/6 206/1/6
f 205/3/6 201/3/6 206/3/6
f 185/3/6 202/3/6 207/3/6
f 206/1/6 191/1/6 211/1/6
f 185/3/6 207/3/6 212/3/6
f 207/1/6 208/1/6 213/1/6
f 212/3/6 207/3/6 213/3/6
f 208/3/6 209/3/6 214/3/6
f 213/1/6 208/1/6 214/1/6
f 209/1/6 210/1/6 215/1/6
f 214/3/6 209/3/6 215/3/6
f 210/3/6 211/3/6 216/3/6
f 215/1/6 210/1/6 216/1/6
f 211/1/6 191/1/6 217/1/6
f 216/3/6 211/3/6 217/3/6
f 217/1/6 191/1/6 218/1/6
f 219/2/6 220/2/6 221/2/6
f 221/2/6 220/2/6 222/2/6
f 223/2/6 224/2/6 225/2/6
f 225/2/6 224/2/6 226/2/6
